<mxfile host="app.diagrams.net" modified="2024-03-26T08:33:11.241Z" agent="Mozilla/5.0 (Windows NT 10.0; Win64; x64) AppleWebKit/537.36 (KHTML, like Gecko) Chrome/123.0.0.0 Safari/537.36" etag="6fEsBwUhh4yy7PLn3XtA" version="24.1.0" type="github">
  <diagram name="Page-1" id="2YBvvXClWsGukQMizWep">
    <mxGraphModel dx="1185" dy="651" grid="1" gridSize="10" guides="1" tooltips="1" connect="1" arrows="1" fold="1" page="1" pageScale="1" pageWidth="850" pageHeight="1100" math="0" shadow="0">
      <root>
        <mxCell id="0" />
        <mxCell id="1" parent="0" />
        <mxCell id="VeQfj7mejQCfJj176wqu-9" style="edgeStyle=orthogonalEdgeStyle;rounded=0;orthogonalLoop=1;jettySize=auto;html=1;dashed=1;endArrow=none;endFill=0;" edge="1" parent="1" source="VeQfj7mejQCfJj176wqu-1">
          <mxGeometry relative="1" as="geometry">
            <mxPoint x="105" y="440" as="targetPoint" />
            <Array as="points">
              <mxPoint x="105" y="440" />
            </Array>
          </mxGeometry>
        </mxCell>
        <mxCell id="VeQfj7mejQCfJj176wqu-1" value="User" style="shape=umlActor;verticalLabelPosition=bottom;verticalAlign=top;html=1;outlineConnect=0;" vertex="1" parent="1">
          <mxGeometry x="90" y="70" width="30" height="60" as="geometry" />
        </mxCell>
        <mxCell id="VeQfj7mejQCfJj176wqu-8" style="edgeStyle=orthogonalEdgeStyle;rounded=0;orthogonalLoop=1;jettySize=auto;html=1;dashed=1;endArrow=none;endFill=0;" edge="1" parent="1" source="VeQfj7mejQCfJj176wqu-3">
          <mxGeometry relative="1" as="geometry">
            <mxPoint x="685" y="430" as="targetPoint" />
          </mxGeometry>
        </mxCell>
        <mxCell id="VeQfj7mejQCfJj176wqu-3" value="RemoteHost" style="shape=umlActor;verticalLabelPosition=bottom;verticalAlign=top;html=1;outlineConnect=0;" vertex="1" parent="1">
          <mxGeometry x="670" y="70" width="30" height="60" as="geometry" />
        </mxCell>
        <mxCell id="VeQfj7mejQCfJj176wqu-6" style="edgeStyle=orthogonalEdgeStyle;rounded=0;orthogonalLoop=1;jettySize=auto;html=1;dashed=1;endArrow=none;endFill=0;" edge="1" parent="1" source="VeQfj7mejQCfJj176wqu-4">
          <mxGeometry relative="1" as="geometry">
            <mxPoint x="290" y="430" as="targetPoint" />
          </mxGeometry>
        </mxCell>
        <mxCell id="VeQfj7mejQCfJj176wqu-4" value="ConnectionMgr" style="rounded=0;whiteSpace=wrap;html=1;" vertex="1" parent="1">
          <mxGeometry x="230" y="80" width="120" height="40" as="geometry" />
        </mxCell>
        <mxCell id="VeQfj7mejQCfJj176wqu-7" style="edgeStyle=orthogonalEdgeStyle;rounded=0;orthogonalLoop=1;jettySize=auto;html=1;dashed=1;endArrow=none;endFill=0;" edge="1" parent="1" source="VeQfj7mejQCfJj176wqu-5">
          <mxGeometry relative="1" as="geometry">
            <mxPoint x="495" y="430" as="targetPoint" />
          </mxGeometry>
        </mxCell>
        <mxCell id="VeQfj7mejQCfJj176wqu-5" value="BluetoothConnection" style="rounded=0;whiteSpace=wrap;html=1;" vertex="1" parent="1">
          <mxGeometry x="430" y="80" width="130" height="40" as="geometry" />
        </mxCell>
        <mxCell id="VeQfj7mejQCfJj176wqu-11" value="" style="endArrow=classic;html=1;rounded=0;" edge="1" parent="1">
          <mxGeometry width="50" height="50" relative="1" as="geometry">
            <mxPoint x="110" y="180" as="sourcePoint" />
            <mxPoint x="290" y="180" as="targetPoint" />
          </mxGeometry>
        </mxCell>
        <mxCell id="VeQfj7mejQCfJj176wqu-12" value="1. getInstance()" style="text;html=1;align=center;verticalAlign=middle;resizable=0;points=[];autosize=1;strokeColor=none;fillColor=none;" vertex="1" parent="1">
          <mxGeometry x="145" y="158" width="110" height="30" as="geometry" />
        </mxCell>
        <mxCell id="VeQfj7mejQCfJj176wqu-13" value="" style="endArrow=open;html=1;rounded=0;dashed=1;endFill=0;" edge="1" parent="1">
          <mxGeometry width="50" height="50" relative="1" as="geometry">
            <mxPoint x="290" y="220" as="sourcePoint" />
            <mxPoint x="110" y="220" as="targetPoint" />
            <Array as="points">
              <mxPoint x="210" y="220" />
            </Array>
          </mxGeometry>
        </mxCell>
        <mxCell id="VeQfj7mejQCfJj176wqu-14" value="2. instance" style="text;html=1;align=center;verticalAlign=middle;resizable=0;points=[];autosize=1;strokeColor=none;fillColor=none;" vertex="1" parent="1">
          <mxGeometry x="160" y="198" width="80" height="30" as="geometry" />
        </mxCell>
        <mxCell id="VeQfj7mejQCfJj176wqu-15" value="" style="endArrow=classic;html=1;rounded=0;" edge="1" parent="1">
          <mxGeometry width="50" height="50" relative="1" as="geometry">
            <mxPoint x="110" y="260" as="sourcePoint" />
            <mxPoint x="290" y="260" as="targetPoint" />
          </mxGeometry>
        </mxCell>
        <mxCell id="VeQfj7mejQCfJj176wqu-16" value="3. getConnection(&quot;Bluetooth&quot;)" style="text;html=1;align=center;verticalAlign=middle;resizable=0;points=[];autosize=1;strokeColor=none;fillColor=none;" vertex="1" parent="1">
          <mxGeometry x="110" y="240" width="180" height="30" as="geometry" />
        </mxCell>
        <mxCell id="VeQfj7mejQCfJj176wqu-17" value="" style="endArrow=classic;html=1;rounded=0;endFill=1;" edge="1" parent="1">
          <mxGeometry width="50" height="50" relative="1" as="geometry">
            <mxPoint x="290" y="290" as="sourcePoint" />
            <mxPoint x="490" y="290" as="targetPoint" />
          </mxGeometry>
        </mxCell>
        <mxCell id="VeQfj7mejQCfJj176wqu-18" value="4.BluetoothConnection" style="text;html=1;align=center;verticalAlign=middle;resizable=0;points=[];autosize=1;strokeColor=none;fillColor=none;" vertex="1" parent="1">
          <mxGeometry x="320" y="270" width="140" height="30" as="geometry" />
        </mxCell>
        <mxCell id="VeQfj7mejQCfJj176wqu-19" value="" style="endArrow=classic;html=1;rounded=0;endFill=1;" edge="1" parent="1">
          <mxGeometry width="50" height="50" relative="1" as="geometry">
            <mxPoint x="500" y="290" as="sourcePoint" />
            <mxPoint x="680" y="290" as="targetPoint" />
          </mxGeometry>
        </mxCell>
        <mxCell id="VeQfj7mejQCfJj176wqu-20" value="5.RemoteHost" style="text;html=1;align=center;verticalAlign=middle;resizable=0;points=[];autosize=1;strokeColor=none;fillColor=none;" vertex="1" parent="1">
          <mxGeometry x="530" y="270" width="100" height="30" as="geometry" />
        </mxCell>
        <mxCell id="VeQfj7mejQCfJj176wqu-21" value="" style="endArrow=open;html=1;rounded=0;dashed=1;endFill=0;" edge="1" parent="1">
          <mxGeometry width="50" height="50" relative="1" as="geometry">
            <mxPoint x="290" y="320" as="sourcePoint" />
            <mxPoint x="110" y="320" as="targetPoint" />
            <Array as="points">
              <mxPoint x="230" y="320" />
            </Array>
          </mxGeometry>
        </mxCell>
        <mxCell id="VeQfj7mejQCfJj176wqu-22" value="6. AbstractConnection" style="text;html=1;align=center;verticalAlign=middle;resizable=0;points=[];autosize=1;strokeColor=none;fillColor=none;" vertex="1" parent="1">
          <mxGeometry x="130" y="288" width="140" height="30" as="geometry" />
        </mxCell>
        <mxCell id="VeQfj7mejQCfJj176wqu-23" value="7. sendMessage(String)" style="text;html=1;align=center;verticalAlign=middle;resizable=0;points=[];autosize=1;strokeColor=none;fillColor=none;" vertex="1" parent="1">
          <mxGeometry x="125" y="330" width="150" height="30" as="geometry" />
        </mxCell>
        <mxCell id="VeQfj7mejQCfJj176wqu-24" value="" style="endArrow=classic;html=1;rounded=0;" edge="1" parent="1">
          <mxGeometry width="50" height="50" relative="1" as="geometry">
            <mxPoint x="110" y="350" as="sourcePoint" />
            <mxPoint x="490" y="350" as="targetPoint" />
          </mxGeometry>
        </mxCell>
        <mxCell id="VeQfj7mejQCfJj176wqu-25" value="" style="endArrow=classic;html=1;rounded=0;endFill=1;" edge="1" parent="1">
          <mxGeometry width="50" height="50" relative="1" as="geometry">
            <mxPoint x="500" y="350" as="sourcePoint" />
            <mxPoint x="680" y="350" as="targetPoint" />
          </mxGeometry>
        </mxCell>
        <mxCell id="VeQfj7mejQCfJj176wqu-26" value="8. message" style="text;html=1;align=center;verticalAlign=middle;resizable=0;points=[];autosize=1;strokeColor=none;fillColor=none;" vertex="1" parent="1">
          <mxGeometry x="540" y="330" width="90" height="30" as="geometry" />
        </mxCell>
        <mxCell id="VeQfj7mejQCfJj176wqu-27" value="" style="endArrow=open;html=1;rounded=0;dashed=1;endFill=0;" edge="1" parent="1">
          <mxGeometry width="50" height="50" relative="1" as="geometry">
            <mxPoint x="680" y="390" as="sourcePoint" />
            <mxPoint x="500" y="390" as="targetPoint" />
            <Array as="points">
              <mxPoint x="600" y="390" />
            </Array>
          </mxGeometry>
        </mxCell>
        <mxCell id="VeQfj7mejQCfJj176wqu-28" value="9. acknowledgement" style="text;html=1;align=center;verticalAlign=middle;resizable=0;points=[];autosize=1;strokeColor=none;fillColor=none;" vertex="1" parent="1">
          <mxGeometry x="520" y="368" width="130" height="30" as="geometry" />
        </mxCell>
        <mxCell id="VeQfj7mejQCfJj176wqu-29" value="" style="endArrow=open;html=1;rounded=0;dashed=1;endFill=0;" edge="1" parent="1">
          <mxGeometry width="50" height="50" relative="1" as="geometry">
            <mxPoint x="490" y="390" as="sourcePoint" />
            <mxPoint x="110" y="390" as="targetPoint" />
            <Array as="points">
              <mxPoint x="410" y="390" />
            </Array>
          </mxGeometry>
        </mxCell>
        <mxCell id="VeQfj7mejQCfJj176wqu-30" value="10. acknowledgement" style="text;html=1;align=center;verticalAlign=middle;resizable=0;points=[];autosize=1;strokeColor=none;fillColor=none;" vertex="1" parent="1">
          <mxGeometry x="320" y="368" width="140" height="30" as="geometry" />
        </mxCell>
      </root>
    </mxGraphModel>
  </diagram>
</mxfile>
